<svg xmlns="http://www.w3.org/2000/svg" width="364.168" height="167.462" viewBox="0 0 364.168 167.462"><defs><style>.a{fill:rgba(0,0,0,0.1);}.b{fill:rgba(0,0,0,0.2);}.c,.e{fill:none;}.c{stroke:rgba(0,0,0,0.2);}.d{stroke:none;}</style></defs><g transform="translate(-832.014 -1468)"><g transform="translate(832.014 1468)"><g transform="translate(1.248 0)"><g transform="translate(0.32 0)"><path class="a" d="M455.808,16.158V78.736c0,7.3-.569,12.229-1.8,16-1.9,5.569-6.357,10.739-13.377,15.208-5.787,3.766-13.187,6.584-21.82,8.387a135.421,135.421,0,0,1-25.995,2.277,141.071,141.071,0,0,1-28.936-2.666c-9.772-2.04-17.362-4.943-23.054-8.861a32.591,32.591,0,0,1-8.159-7.447c-4.649,6.034-12.333,10.664-23.813,14.345-9.772,3.064-21.536,4.63-35.1,4.63-13.756,0-25.141-1.252-34.723-3.842-10.341-2.827-18.216-7.134-23.244-12.779a14.81,14.81,0,0,1-1.992,2.192c-5.123,5.019-13,8.709-24.192,11.29a134.29,134.29,0,0,1-30.644,3.14c-12.523,0-23.623-1.176-32.921-3.605-12.049-3.14-20.3-7.761-25.141-14.032-4.364-5.645-6.451-12.627-6.451-21.327L94.3,68.556l16,.076c-3.425-3.15-17.1-15.606-17.1-20.227,0-9.8,3.226-17.646,9.677-23.291,5.5-4.782,13.092-8.3,23.339-10.578a133.878,133.878,0,0,1,29.126-2.742c12.144,0,22.39.939,31.4,2.979,11.574,2.581,19.354,6.271,24.382,11.517a22.255,22.255,0,0,1,3.036,3.928,37.072,37.072,0,0,1,8.159-6.983c5.882-3.918,13.282-6.821,22.674-8.776a129.5,129.5,0,0,1,27.7-2.666c13.946,0,25.521,1.328,35.2,4.155,7.874,2.353,14.136,5.171,18.879,8.852V16.158Z" transform="translate(-93.208 -11.794)"/><path class="b" d="M182.815,39.24H145.862V33.253c0-2.8-.474-4.573-1.423-5.341s-2.514-1.148-4.725-1.148a8.245,8.245,0,0,0-5.427,1.546,5.777,5.777,0,0,0-1.84,4.7c0,2.694.683,4.725,2.068,6.091q1.978,2.049,11.242,4.943,26.569,8.325,33.461,13.662t6.907,17.219q0,8.638-3.833,12.722T167.5,94.5a104.629,104.629,0,0,1-25.511,2.77q-15.981,0-27.266-3.188t-14.791-8.14q-3.5-4.938-3.5-14.022V66.639h36.953v9.829q0,4.54,1.556,5.835c1.044.873,2.884,1.3,5.54,1.3,2.637,0,4.611-.55,5.9-1.641a6.077,6.077,0,0,0,1.935-4.9q0-7.13-3.691-9.335-3.771-2.192-18.614-7.334-14.829-5.18-19.657-7.533a21.964,21.964,0,0,1-7.979-6.489A16.9,16.9,0,0,1,95.21,35.8q0-9.278,4.487-13.576T114.2,15.512A104.469,104.469,0,0,1,138.4,13.093a113.637,113.637,0,0,1,26.412,2.647q10.929,2.633,14.458,6.66t3.548,13.643Z" transform="translate(-76.217 -0.769)"/><path class="b" d="M201.269,49.97H161.48V35.929q0-6.119-1.271-7.647c-.854-1.006-2.732-1.518-5.626-1.518q-4.91,0-6.242,1.85c-.873,1.224-1.319,3.89-1.319,7.979V74.124c0,3.928.446,6.489,1.319,7.685Q149.678,83.6,154.3,83.6c2.96,0,4.9-.6,5.816-1.8s1.366-4.013,1.366-8.453V63.195h39.789v3.15q0,12.537-3.358,17.788t-14.829,9.193q-11.5,3.956-28.31,3.947-17.49,0-28.822-3.339t-15.028-9.259q-3.686-5.906-3.691-17.788v-23.6q0-8.738,1.138-13.1t6.755-8.406q5.621-4.042,15.6-6.366a101.654,101.654,0,0,1,22.921-2.315q17.561,0,29.012,3.586,11.427,3.586,15.018,8.946t3.6,16.669Z" transform="translate(25.816 -0.769)"/><path class="b" d="M210.834,13.272V67.264q0,9.179-1.129,12.9T203,87.794q-5.578,3.928-14.7,5.939a100.5,100.5,0,0,1-21.507,2.021A109.618,109.618,0,0,1,142.6,93.363q-10.488-2.391-15.682-6.243c-3.472-2.562-5.512-5.265-6.148-8.1s-.939-8.833-.939-17.94V13.272h39.78V73.848c0,3.529.37,5.778,1.091,6.764s2.192,1.47,4.393,1.47q3.785,0,4.867-1.622c.721-1.082,1.091-3.634,1.091-7.656V13.272Z" transform="translate(132.763 0.75)"/></g></g><g class="c" transform="translate(0 125.429)"><rect class="d" width="363.163" height="42.033"/><rect class="e" x="0.5" y="0.5" width="362.163" height="41.033"/></g><g transform="translate(9.771 134.556)"><path class="b" d="M119.446,48.634h-9.329V44.549a4.929,4.929,0,0,0-.3-2.225c-.2-.292-.639-.441-1.318-.441q-1.152,0-1.462.538a5.484,5.484,0,0,0-.31,2.324V55.661a5.113,5.113,0,0,0,.31,2.235q.308.524,1.395.523A1.484,1.484,0,0,0,109.8,57.9a5.725,5.725,0,0,0,.322-2.46V52.482h9.329V53.4a12.228,12.228,0,0,1-.785,5.176,6.644,6.644,0,0,1-3.479,2.676,16.945,16.945,0,0,1-6.638,1.15,19.9,19.9,0,0,1-6.759-.974,5.986,5.986,0,0,1-3.523-2.693,11.955,11.955,0,0,1-.865-5.176V46.689a20.229,20.229,0,0,1,.265-3.811,4.643,4.643,0,0,1,1.586-2.448A9.323,9.323,0,0,1,102.9,38.58a19.475,19.475,0,0,1,5.374-.674,18.956,18.956,0,0,1,6.8,1.043,6.461,6.461,0,0,1,3.523,2.6,10.663,10.663,0,0,1,.84,4.849Z" transform="translate(-97.397 -37.906)"/><path class="b" d="M108.765,38.1h6.6a76.581,76.581,0,0,1,8.942.334,6.852,6.852,0,0,1,3.811,1.7,5.728,5.728,0,0,1,1.474,4.378q0,2.743-1.041,3.687t-4.1,1.132a8.755,8.755,0,0,1,3.724,1.2,3.544,3.544,0,0,1,1.184,1.388,14.4,14.4,0,0,1,.233,3.476v6.2h-8.665V53.8a3.738,3.738,0,0,0-.453-2.336,3.893,3.893,0,0,0-2.384-.451v10.6h-9.329Zm9.329,4.021v5.225a5.986,5.986,0,0,0,2.205-.282q.632-.282.632-1.836V43.94a1.544,1.544,0,0,0-.61-1.464A4.919,4.919,0,0,0,118.094,42.126Z" transform="translate(-80.598 -37.612)"/><path class="b" d="M137.139,38.1l5.335,23.5h-9.534l-.5-4.224H129.1l-.562,4.224h-9.646l4.76-23.5Zm-4.945,15.114q-.71-4-1.422-9.874-1.423,6.753-1.789,9.874Z" transform="translate(-65.632 -37.612)"/><path class="b" d="M151,38.1v23.5h-8.176l-4.854-10.684V61.608h-7.8V38.1h7.8l5.23,10.582V38.1Z" transform="translate(-48.973 -37.612)"/><path class="b" d="M141.2,38.1h15.555v4.7h-6.226v4.457h5.828v4.472h-5.828v5.169h6.848v4.7H141.2Z" transform="translate(-32.663 -37.612)"/><path class="b" d="M178.581,50.613v3.962l-2.5,1.046,3.127,3.92h-8.29l-1.075-1.306a19.934,19.934,0,0,1-7.887,1.8,9.347,9.347,0,0,1-6.006-1.7,5.1,5.1,0,0,1-2.106-4.093,3.788,3.788,0,0,1,1.241-3.005,9.414,9.414,0,0,1,3.724-1.772q-3.546-1.669-3.546-4.514A4.473,4.473,0,0,1,157.793,41a13.69,13.69,0,0,1,6.96-1.5,11.61,11.61,0,0,1,6.283,1.467,4.329,4.329,0,0,1,2.292,3.731q0,2.382-2.792,4.224l3.159,3.741Zm-11.8,4.97-2.891-3.171q-1.661.989-1.663,2.136a1.494,1.494,0,0,0,.52,1.241,2.432,2.432,0,0,0,1.536.414A6.389,6.389,0,0,0,166.78,55.583Zm-2.027-9.093a3.488,3.488,0,0,0,1.529-2.468,1.254,1.254,0,0,0-.444-.929,1.721,1.721,0,0,0-1.241-.421,1.673,1.673,0,0,0-1.108.32,1.2,1.2,0,0,0-.377.971A3.2,3.2,0,0,0,164.753,46.49Z" transform="translate(-13.978 -35.543)"/><path class="b" d="M170.3,38.1h6.6a76.664,76.664,0,0,1,8.945.334,6.86,6.86,0,0,1,3.811,1.7,5.737,5.737,0,0,1,1.474,4.378q0,2.743-1.041,3.687t-4.1,1.132a8.728,8.728,0,0,1,3.722,1.2,3.554,3.554,0,0,1,1.187,1.388,14.536,14.536,0,0,1,.233,3.476v6.2h-8.664V53.8a3.715,3.715,0,0,0-.456-2.336,3.878,3.878,0,0,0-2.381-.451v10.6H170.3Zm9.331,4.021v5.225a5.986,5.986,0,0,0,2.205-.282q.632-.282.632-1.836V43.94a1.54,1.54,0,0,0-.612-1.464A4.907,4.907,0,0,0,179.627,42.126Z" transform="translate(10.326 -37.612)"/><path class="b" d="M190.61,38.1v23.5h-9.331V38.1Z" transform="translate(26.556 -37.612)"/><path class="b" d="M209.241,47.051H199.91V44.918a7.043,7.043,0,0,0-.265-2.527c-.176-.337-.6-.508-1.264-.508a1.36,1.36,0,0,0-1.174.436,4.8,4.8,0,0,0-.31,2.235V55.835a4.563,4.563,0,0,0,.31,2.084,1.351,1.351,0,0,0,1.241.5,1.53,1.53,0,0,0,1.385-.565,4.524,4.524,0,0,0,.367-2.208V52.859h-1.886v-3.57h10.927V61.9h-5.862l-.865-1.682a5.874,5.874,0,0,1-2.406,1.633,9.787,9.787,0,0,1-3.427.545,12.788,12.788,0,0,1-4.4-.748,8.139,8.139,0,0,1-3.114-1.851,4.837,4.837,0,0,1-1.33-2.317,18.226,18.226,0,0,1-.268-3.637V46.863a15.6,15.6,0,0,1,.555-4.893q.554-1.524,3.179-2.795a15.688,15.688,0,0,1,6.794-1.269,18.127,18.127,0,0,1,6.8,1.1,6.646,6.646,0,0,1,3.521,2.621,9.449,9.449,0,0,1,.823,4.405Z" transform="translate(35.846 -37.906)"/><path class="b" d="M220.456,47.051h-9.329V44.918a7.024,7.024,0,0,0-.268-2.527c-.176-.337-.6-.508-1.264-.508a1.352,1.352,0,0,0-1.172.436,4.758,4.758,0,0,0-.312,2.235V55.835a4.52,4.52,0,0,0,.312,2.084,1.343,1.343,0,0,0,1.239.5,1.527,1.527,0,0,0,1.385-.565,4.5,4.5,0,0,0,.367-2.208V52.859h-1.883v-3.57h10.924V61.9h-5.862l-.865-1.682a5.882,5.882,0,0,1-2.4,1.633,9.806,9.806,0,0,1-3.427.545,12.757,12.757,0,0,1-4.4-.748,8.15,8.15,0,0,1-3.117-1.851,4.878,4.878,0,0,1-1.331-2.317,18.226,18.226,0,0,1-.268-3.637V46.863a15.594,15.594,0,0,1,.555-4.893q.554-1.524,3.181-2.795a15.668,15.668,0,0,1,6.791-1.269,18.118,18.118,0,0,1,6.8,1.1,6.653,6.653,0,0,1,3.523,2.621,9.452,9.452,0,0,1,.82,4.405Z" transform="translate(52.419 -37.906)"/><path class="b" d="M219.435,38.1v23.5H210.1V38.1Z" transform="translate(69.151 -37.612)"/><path class="b" d="M237.332,38.1v23.5h-8.179L224.3,50.925V61.608h-7.8V38.1h7.8l5.233,10.582V38.1Z" transform="translate(78.6 -37.612)"/><path class="b" d="M249.1,47.051h-9.331V44.918a7.107,7.107,0,0,0-.265-2.527c-.178-.337-.6-.508-1.264-.508a1.357,1.357,0,0,0-1.174.436,4.758,4.758,0,0,0-.312,2.235V55.835a4.52,4.52,0,0,0,.312,2.084,1.343,1.343,0,0,0,1.239.5,1.532,1.532,0,0,0,1.388-.565,4.5,4.5,0,0,0,.364-2.208V52.859h-1.881v-3.57H249.1V61.9h-5.862l-.865-1.682a5.89,5.89,0,0,1-2.406,1.633,9.787,9.787,0,0,1-3.427.545,12.777,12.777,0,0,1-4.4-.748,8.15,8.15,0,0,1-3.117-1.851,4.878,4.878,0,0,1-1.331-2.317,18.454,18.454,0,0,1-.265-3.637V46.863a15.685,15.685,0,0,1,.553-4.893q.557-1.524,3.184-2.795a15.668,15.668,0,0,1,6.791-1.269,18.135,18.135,0,0,1,6.8,1.1,6.674,6.674,0,0,1,3.523,2.621,9.483,9.483,0,0,1,.82,4.405Z" transform="translate(94.75 -37.906)"/></g></g></g></svg>